<svg width="99" height="30" viewBox="0 0 99 30" fill="none" xmlns="http://www.w3.org/2000/svg">
<path d="M46.76 9.2V7.54H50.52V22H48.68V9.2H46.76Z" fill="#151515"/>
<rect x="0.5" y="2.5" width="24" height="24" stroke="black"/>
<rect x="74.5" y="2.5" width="24" height="24" stroke="black"/>
<path d="M91.4499 13.95H87.05V9.54996C87.05 9.24643 86.8036 9 86.4999 9C86.1964 9 85.95 9.24643 85.95 9.54996V13.95H81.55C81.2464 13.95 81 14.1964 81 14.4999C81 14.8036 81.2464 15.05 81.55 15.05H85.95V19.4499C85.95 19.7536 86.1964 20 86.4999 20C86.8036 20 87.05 19.7536 87.05 19.4499V15.05H91.4499C91.7536 15.05 92 14.8036 92 14.4999C92 14.1964 91.7536 13.95 91.4499 13.95Z" fill="black"/>
<path d="M16.9355 14H8.06452C7.47903 14 7 14.225 7 14.5C7 14.775 7.47903 15 8.06452 15H16.9355C17.521 15 18 14.775 18 14.5C18 14.225 17.521 14 16.9355 14Z" fill="black"/>
</svg>
