<svg width="431" height="28" viewBox="0 0 431 28" fill="none" xmlns="http://www.w3.org/2000/svg">
<path d="M3.12 19V14.86H7.965V12.985H3.12V10.87H8.07V8.995H0.99V19H3.12ZM10.4593 10.975C11.0893 10.975 11.5993 10.465 11.5993 9.835C11.5993 9.205 11.0893 8.71 10.4593 8.71C9.84434 8.71 9.31934 9.205 9.31934 9.835C9.31934 10.465 9.84434 10.975 10.4593 10.975ZM11.4193 19V11.755H9.51434V19H11.4193ZM15.2133 19V8.995H13.3083V19H15.2133ZM19.5322 19.18C20.3272 19.18 20.8372 18.97 21.1222 18.715L20.7172 17.275C20.6122 17.38 20.3422 17.485 20.0572 17.485C19.6372 17.485 19.3972 17.14 19.3972 16.69V13.42H20.8672V11.755H19.3972V9.775H17.4772V11.755H16.2772V13.42H17.4772V17.2C17.4772 18.49 18.1972 19.18 19.5322 19.18ZM25.5756 19.18C26.7006 19.18 27.8406 18.835 28.5606 18.175L27.7206 16.945C27.2556 17.395 26.4006 17.665 25.7856 17.665C24.5556 17.665 23.8206 16.9 23.7006 15.985H29.0856V15.565C29.0856 13.195 27.6156 11.575 25.4556 11.575C23.2506 11.575 21.7056 13.27 21.7056 15.37C21.7056 17.695 23.3706 19.18 25.5756 19.18ZM27.2406 14.695H23.6706C23.7606 13.975 24.2706 13.09 25.4556 13.09C26.7156 13.09 27.1956 14.005 27.2406 14.695ZM32.3666 19V14.215C32.6816 13.75 33.5216 13.39 34.1516 13.39C34.3616 13.39 34.5416 13.405 34.6766 13.435V11.575C33.7766 11.575 32.8766 12.1 32.3666 12.745V11.755H30.4616V19H32.3666Z" fill="#252525"/>
<path d="M74.545 19.18C77.245 19.18 78.55 17.8 78.55 15.97C78.55 12.235 72.805 13.3 72.805 11.71C72.805 11.11 73.315 10.705 74.23 10.705C75.25 10.705 76.33 11.05 77.14 11.8L78.325 10.24C77.335 9.325 76.015 8.845 74.425 8.845C72.07 8.845 70.63 10.225 70.63 11.89C70.63 15.655 76.39 14.44 76.39 16.21C76.39 16.78 75.82 17.32 74.65 17.32C73.27 17.32 72.175 16.705 71.47 15.97L70.315 17.59C71.245 18.535 72.625 19.18 74.545 19.18ZM83.2991 19.18C85.6991 19.18 87.1391 17.44 87.1391 15.37C87.1391 13.315 85.6991 11.575 83.2991 11.575C80.9141 11.575 79.4741 13.315 79.4741 15.37C79.4741 17.44 80.9141 19.18 83.2991 19.18ZM83.2991 17.485C82.1141 17.485 81.4541 16.51 81.4541 15.37C81.4541 14.245 82.1141 13.27 83.2991 13.27C84.4841 13.27 85.1591 14.245 85.1591 15.37C85.1591 16.51 84.4841 17.485 83.2991 17.485ZM90.4574 19V14.215C90.7724 13.75 91.6124 13.39 92.2424 13.39C92.4524 13.39 92.6324 13.405 92.7674 13.435V11.575C91.8674 11.575 90.9674 12.1 90.4574 12.745V11.755H88.5524V19H90.4574ZM96.3877 19.18C97.1827 19.18 97.6927 18.97 97.9777 18.715L97.5727 17.275C97.4677 17.38 97.1977 17.485 96.9127 17.485C96.4927 17.485 96.2527 17.14 96.2527 16.69V13.42H97.7227V11.755H96.2527V9.775H94.3327V11.755H93.1327V13.42H94.3327V17.2C94.3327 18.49 95.0527 19.18 96.3877 19.18ZM104.769 16.675V14.11C105.084 13.63 105.789 13.27 106.404 13.27C107.514 13.27 108.249 14.125 108.249 15.385C108.249 16.645 107.514 17.485 106.404 17.485C105.789 17.485 105.084 17.14 104.769 16.675ZM104.769 19V18.07C105.339 18.79 106.134 19.18 107.004 19.18C108.834 19.18 110.214 17.8 110.214 15.385C110.214 13.015 108.849 11.575 107.004 11.575C106.149 11.575 105.339 11.95 104.769 12.685V8.995H102.864V19H104.769ZM111.398 21.835C111.638 21.895 112.118 21.94 112.343 21.94C113.588 21.91 114.548 21.55 115.088 20.185L118.493 11.755H116.438L114.548 16.795L112.658 11.755H110.618L113.558 19.105L113.288 19.72C113.108 20.11 112.778 20.245 112.283 20.245C112.103 20.245 111.848 20.2 111.683 20.125L111.398 21.835ZM125.356 19V15.445H127.906C130.066 15.445 131.266 13.96 131.266 12.22C131.266 10.465 130.081 8.995 127.906 8.995H123.226V19H125.356ZM127.621 13.57H125.356V10.87H127.621C128.461 10.87 129.091 11.38 129.091 12.22C129.091 13.045 128.461 13.57 127.621 13.57ZM134.447 19V14.215C134.762 13.75 135.602 13.39 136.232 13.39C136.442 13.39 136.622 13.405 136.757 13.435V11.575C135.857 11.575 134.957 12.1 134.447 12.745V11.755H132.542V19H134.447ZM138.892 10.975C139.522 10.975 140.032 10.465 140.032 9.835C140.032 9.205 139.522 8.71 138.892 8.71C138.277 8.71 137.752 9.205 137.752 9.835C137.752 10.465 138.277 10.975 138.892 10.975ZM139.852 19V11.755H137.947V19H139.852ZM145.116 19.18C146.601 19.18 147.501 18.535 147.981 17.86L146.736 16.705C146.391 17.185 145.866 17.485 145.206 17.485C144.051 17.485 143.241 16.63 143.241 15.37C143.241 14.11 144.051 13.27 145.206 13.27C145.866 13.27 146.391 13.54 146.736 14.05L147.981 12.88C147.501 12.22 146.601 11.575 145.116 11.575C142.881 11.575 141.276 13.15 141.276 15.37C141.276 17.605 142.881 19.18 145.116 19.18ZM152.631 19.18C153.756 19.18 154.896 18.835 155.616 18.175L154.776 16.945C154.311 17.395 153.456 17.665 152.841 17.665C151.611 17.665 150.876 16.9 150.756 15.985H156.141V15.565C156.141 13.195 154.671 11.575 152.511 11.575C150.306 11.575 148.761 13.27 148.761 15.37C148.761 17.695 150.426 19.18 152.631 19.18ZM154.296 14.695H150.726C150.816 13.975 151.326 13.09 152.511 13.09C153.771 13.09 154.251 14.005 154.296 14.695Z" fill="#252525"/>
<rect x="233" y="13" width="5" height="5" fill="#252525"/>
<rect x="233" y="7" width="5" height="5" fill="#252525"/>
<rect x="239" y="7" width="17" height="5" fill="#252525"/>
<rect x="239" y="13" width="17" height="5" fill="#252525"/>
<rect x="239" y="19" width="17" height="5" fill="#252525"/>
<rect x="233" y="19" width="5" height="5" fill="#252525"/>
<rect x="268" y="7" width="11" height="17" fill="#252525"/>
<rect x="280" y="7" width="11" height="17" fill="#252525"/>
<rect x="303" y="7" width="7" height="17" fill="#252525"/>
<rect x="311" y="7" width="7" height="17" fill="#252525"/>
<rect x="319" y="7" width="7" height="17" fill="#252525"/>
<rect x="338" y="7" width="5" height="17" fill="#252525"/>
<rect x="344" y="7" width="5" height="17" fill="#252525"/>
<rect x="350" y="7" width="5" height="17" fill="#252525"/>
<rect x="356" y="7" width="5" height="17" fill="#252525"/>
<rect x="373" y="7" width="5" height="17" fill="#252525"/>
<rect x="379" y="7" width="5" height="17" fill="#252525"/>
<rect x="385" y="7" width="5" height="17" fill="#252525"/>
<rect x="391" y="7" width="5" height="17" fill="#252525"/>
<rect x="408" y="7" width="4" height="17" fill="#252525"/>
<rect x="413" y="7" width="4" height="17" fill="#252525"/>
<rect x="418" y="7" width="3" height="17" fill="#252525"/>
<rect x="422" y="7" width="4" height="17" fill="#252525"/>
<rect x="427" y="7" width="4" height="17" fill="#252525"/>
<path d="M57.5385 10.9231H51.0769C51.0769 10.414 50.6629 10 50.1538 10H49.2308C48.7217 10 48.3077 10.414 48.3077 10.9231H46.4615C46.2068 10.9231 46 11.1294 46 11.3846C46 11.6398 46.2068 11.8462 46.4615 11.8462H48.3077C48.3077 12.3552 48.7217 12.7692 49.2308 12.7692H50.1538C50.6629 12.7692 51.0769 12.3552 51.0769 11.8462H57.5385C57.7932 11.8462 58 11.6398 58 11.3846C58 11.1294 57.7932 10.9231 57.5385 10.9231ZM49.2308 11.8462V10.9231H50.1538L50.1543 11.3828C50.1543 11.3837 50.1538 11.3842 50.1538 11.3846C50.1538 11.3851 50.1543 11.3855 50.1543 11.3865V11.8462H49.2308Z" fill="black"/>
<path d="M57.5385 14.6155H54.7692C54.7692 14.1064 54.3552 13.6924 53.8462 13.6924H52.9231C52.414 13.6924 52 14.1064 52 14.6155H46.4615C46.2068 14.6155 46 14.8218 46 15.077C46 15.3322 46.2068 15.5385 46.4615 15.5385H52C52 16.0476 52.414 16.4616 52.9231 16.4616H53.8462C54.3552 16.4616 54.7692 16.0476 54.7692 15.5385H57.5385C57.7932 15.5385 58 15.3322 58 15.077C58 14.8218 57.7932 14.6155 57.5385 14.6155ZM52.9231 15.5385V14.6155H53.8462L53.8466 15.0752C53.8466 15.0761 53.8462 15.0765 53.8462 15.077C53.8462 15.0775 53.8466 15.0779 53.8466 15.0788V15.5385H52.9231Z" fill="black"/>
<path d="M57.5385 18.3078H51.0769C51.0769 17.7988 50.6629 17.3848 50.1538 17.3848H49.2308C48.7217 17.3848 48.3077 17.7988 48.3077 18.3078H46.4615C46.2068 18.3078 46 18.5142 46 18.7694C46 19.0246 46.2068 19.2309 46.4615 19.2309H48.3077C48.3077 19.74 48.7217 20.154 49.2308 20.154H50.1538C50.6629 20.154 51.0769 19.74 51.0769 19.2309H57.5385C57.7932 19.2309 58 19.0246 58 18.7694C58 18.5142 57.7932 18.3078 57.5385 18.3078ZM49.2308 19.2309V18.3078H50.1538L50.1543 18.7675C50.1543 18.7685 50.1538 18.7689 50.1538 18.7694C50.1538 18.7698 50.1543 18.7703 50.1543 18.7712V19.2309H49.2308Z" fill="black"/>
<path d="M201.246 21.4849C202.856 21.485 204.419 20.948 205.688 19.9592L210.478 24.749C210.836 25.0945 211.406 25.0846 211.752 24.7268C212.089 24.3778 212.089 23.8244 211.752 23.4754L206.962 18.6856C209.416 15.5269 208.844 10.9771 205.686 8.52332C202.527 6.06952 197.977 6.64093 195.523 9.79963C193.07 12.9583 193.641 17.5081 196.8 19.9619C198.071 20.9498 199.636 21.4857 201.246 21.4849ZM197.398 10.3949C199.523 8.26939 202.969 8.26935 205.095 10.3949C207.22 12.5204 207.221 15.9665 205.095 18.0921C202.969 20.2176 199.523 20.2177 197.398 18.0922C197.398 18.0921 197.398 18.0921 197.398 18.0921C195.272 15.982 195.26 12.5485 197.37 10.423C197.379 10.4136 197.388 10.4043 197.398 10.3949Z" fill="black"/>
<path d="M160 12L164 16L168 12" stroke="#808080" stroke-width="1.2" stroke-linecap="round"/>
</svg>
